<svg version="1.1" id="Layer_1" xmlns="http://www.w3.org/2000/svg" xmlns:xlink="http://www.w3.org/1999/xlink" x="0px" y="0px"
	 width="100%" viewBox="0 0 500 500" enable-background="new 0 0 500 500" xml:space="preserve">
<path fill="#000000" opacity="1.000000" stroke="none" 
	d="
M0.999998,348.000000 
	C1.000000,232.376404 1.000000,116.752815 1.000000,1.064613 
	C167.561508,1.064613 334.123047,1.064613 501.000000,1.064613 
	C501.000000,108.687897 501.000000,216.376099 500.533478,324.580872 
	C450.322388,325.097473 400.577820,325.097473 350.361511,325.097473 
	C350.361511,243.314331 350.361511,162.247467 350.361511,80.813950 
	C326.820923,80.813950 303.755005,80.813950 280.621399,80.813950 
	C280.621399,181.331070 280.621399,281.489288 280.621399,381.910950 
	C307.438690,381.910950 333.750854,381.900940 360.063049,381.913177 
	C407.042023,381.934998 454.021027,381.970306 501.000000,382.000000 
	C501.000000,421.644135 501.000000,461.288269 501.000000,500.966187 
	C334.450562,500.966187 167.901108,500.966187 1.000000,500.966187 
	C1.000000,451.979126 1.000000,402.957428 1.343905,353.504333 
	C25.407310,370.327850 52.625874,378.711304 81.010048,383.738922 
	C100.696297,387.225891 120.586952,387.479584 140.589218,386.419281 
	C163.958649,385.180450 186.086304,379.961121 206.468292,368.414642 
	C240.411636,349.185608 256.861389,314.749512 249.833084,276.197113 
	C245.320908,251.446533 229.453812,235.249237 207.985062,224.654739 
	C184.301331,212.967209 158.328476,207.877869 132.834061,201.605453 
	C117.559341,197.847397 102.137543,194.454422 88.261551,186.554367 
	C72.604622,177.640381 74.202591,159.149384 81.774048,149.008041 
	C88.752014,139.661606 99.014343,135.888657 109.891014,133.954330 
	C141.623596,128.310959 171.733398,134.273575 200.693314,147.510544 
	C206.045807,149.957077 211.302887,152.612381 217.043457,155.383469 
	C224.352341,137.342789 231.460754,119.796913 238.675064,101.989632 
	C232.405365,98.807549 226.805756,95.549919 220.890991,93.032921 
	C188.966583,79.447624 155.646881,73.883919 121.004387,75.922287 
	C103.050125,76.978722 85.425697,79.533142 68.584976,86.147804 
	C35.992607,98.949371 13.246129,120.313812 7.671072,156.507370 
	C5.095630,173.227249 6.458628,189.670471 13.904515,204.887711 
	C23.414501,224.323364 39.817657,236.881165 59.807423,243.611328 
	C82.160469,251.137131 105.144539,256.803925 127.900513,263.111938 
	C141.269028,266.817719 154.798508,269.790985 167.053253,276.869507 
	C186.010803,287.819672 186.578842,310.321045 167.902222,321.904602 
	C155.226135,329.766541 140.871338,331.011444 126.683250,330.789459 
	C113.510536,330.583313 100.271507,328.753967 87.242996,326.561768 
	C67.459213,323.232910 49.305950,315.242096 32.199821,304.870911 
	C29.584087,303.285065 27.149336,301.400665 24.346609,299.457214 
	C23.488230,301.292267 22.922567,302.451691 22.398451,303.629578 
	C16.499229,316.887665 10.657217,330.171692 4.650260,343.380737 
	C3.861524,345.115143 2.237266,346.469574 0.999998,348.000000 
z"/>
<path fill="#FCF4F2" opacity="1.000000" stroke="none" 
	d="
M0.999998,348.416656 
	C2.237266,346.469574 3.861524,345.115143 4.650260,343.380737 
	C10.657217,330.171692 16.499229,316.887665 22.398451,303.629578 
	C22.922567,302.451691 23.488230,301.292267 24.346609,299.457214 
	C27.149336,301.400665 29.584087,303.285065 32.199821,304.870911 
	C49.305950,315.242096 67.459213,323.232910 87.242996,326.561768 
	C100.271507,328.753967 113.510536,330.583313 126.683250,330.789459 
	C140.871338,331.011444 155.226135,329.766541 167.902222,321.904602 
	C186.578842,310.321045 186.010803,287.819672 167.053253,276.869507 
	C154.798508,269.790985 141.269028,266.817719 127.900513,263.111938 
	C105.144539,256.803925 82.160469,251.137131 59.807423,243.611328 
	C39.817657,236.881165 23.414501,224.323364 13.904515,204.887711 
	C6.458628,189.670471 5.095630,173.227249 7.671072,156.507370 
	C13.246129,120.313812 35.992607,98.949371 68.584976,86.147804 
	C85.425697,79.533142 103.050125,76.978722 121.004387,75.922287 
	C155.646881,73.883919 188.966583,79.447624 220.890991,93.032921 
	C226.805756,95.549919 232.405365,98.807549 238.675064,101.989632 
	C231.460754,119.796913 224.352341,137.342789 217.043457,155.383469 
	C211.302887,152.612381 206.045807,149.957077 200.693314,147.510544 
	C171.733398,134.273575 141.623596,128.310959 109.891014,133.954330 
	C99.014343,135.888657 88.752014,139.661606 81.774048,149.008041 
	C74.202591,159.149384 72.604622,177.640381 88.261551,186.554367 
	C102.137543,194.454422 117.559341,197.847397 132.834061,201.605453 
	C158.328476,207.877869 184.301331,212.967209 207.985062,224.654739 
	C229.453812,235.249237 245.320908,251.446533 249.833084,276.197113 
	C256.861389,314.749512 240.411636,349.185608 206.468292,368.414642 
	C186.086304,379.961121 163.958649,385.180450 140.589218,386.419281 
	C120.586952,387.479584 100.696297,387.225891 81.010048,383.738922 
	C52.625874,378.711304 25.407310,370.327850 1.343905,353.036469 
	C1.000000,351.611115 1.000000,350.222198 0.999998,348.416656 
z"/>
<path fill="#CA6BE4" opacity="1.000000" stroke="none" 
	d="
M501.000000,381.531342 
	C454.021027,381.970306 407.042023,381.934998 360.063049,381.913177 
	C333.750854,381.900940 307.438690,381.910950 280.621399,381.910950 
	C280.621399,281.489288 280.621399,181.331070 280.621399,80.813950 
	C303.755005,80.813950 326.820923,80.813950 350.361511,80.813950 
	C350.361511,162.247467 350.361511,243.314331 350.361511,325.097473 
	C400.577820,325.097473 450.322388,325.097473 500.533478,325.048737 
	C501.000000,343.687561 501.000000,362.375122 501.000000,381.531342 
z"/>
</svg>